<?xml version="1.0" encoding="UTF-8" standalone="no"?>
<!-- Created with Inkscape (http://www.inkscape.org/) -->

<svg
   width="100"
   height="100"
   viewBox="0 0 26.458312 26.458331"
   version="1.1"
   id="svg5"
   inkscape:version="1.2.2 (b0a8486541, 2022-12-01)"
   sodipodi:docname="Favicon.svg"
   inkscape:export-filename="LogoText.png"
   inkscape:export-xdpi="96"
   inkscape:export-ydpi="96"
   xmlns:inkscape="http://www.inkscape.org/namespaces/inkscape"
   xmlns:sodipodi="http://sodipodi.sourceforge.net/DTD/sodipodi-0.dtd"
   xmlns="http://www.w3.org/2000/svg"
   xmlns:svg="http://www.w3.org/2000/svg">
  <sodipodi:namedview
     id="namedview7"
     pagecolor="#505050"
     bordercolor="#ffffff"
     borderopacity="1"
     inkscape:showpageshadow="0"
     inkscape:pageopacity="0"
     inkscape:pagecheckerboard="1"
     inkscape:deskcolor="#505050"
     inkscape:document-units="mm"
     showgrid="false"
     inkscape:zoom="3.5313412"
     inkscape:cx="95.855932"
     inkscape:cy="44.034261"
     inkscape:window-width="1888"
     inkscape:window-height="1168"
     inkscape:window-x="1934"
     inkscape:window-y="14"
     inkscape:window-maximized="1"
     inkscape:current-layer="layer1" />
  <defs
     id="defs2" />
  <g
     inkscape:label="Layer 1"
     inkscape:groupmode="layer"
     id="layer1">
    <path
       style="fill:#000000;stroke-width:0.0212752;stroke-linejoin:round;stroke-dashoffset:5.14318"
       id="path2265"
       sodipodi:type="arc"
       sodipodi:cx="5.5091023"
       sodipodi:cy="8.3479557"
       sodipodi:rx="2.2962115"
       sodipodi:ry="2.2962115"
       sodipodi:start="0"
       sodipodi:end="6.2817006"
       sodipodi:open="true"
       sodipodi:arc-type="arc"
       d="M 7.8053138,8.3479557 A 2.2962115,2.2962115 0 0 1 5.5099546,10.644167 2.2962115,2.2962115 0 0 1 3.2128915,8.3496603 2.2962115,2.2962115 0 0 1 5.5065454,6.0517456 2.2962115,2.2962115 0 0 1 7.8053113,8.3445465" />
    <path
       style="fill:#000000;stroke-width:0.0168886;stroke-linejoin:round;stroke-dashoffset:5.14318"
       id="path2265-9"
       sodipodi:type="arc"
       sodipodi:cx="3.383955"
       sodipodi:cy="2.5492222"
       sodipodi:rx="1.8227702"
       sodipodi:ry="1.8227702"
       sodipodi:start="0"
       sodipodi:end="6.2817006"
       sodipodi:open="true"
       sodipodi:arc-type="arc"
       d="M 5.2067252,2.5492222 A 1.8227702,1.8227702 0 0 1 3.3846316,4.3719923 1.8227702,1.8227702 0 0 1 1.5611853,2.5505754 1.8227702,1.8227702 0 0 1 3.3819253,0.72645312 1.8227702,1.8227702 0 0 1 5.2067232,2.546516" />
    <path
       style="fill:#000000;fill-opacity:1;stroke-width:0.0240072;stroke-linejoin:round;stroke-dashoffset:5.14318"
       id="path2265-0"
       sodipodi:type="arc"
       sodipodi:cx="19.05582"
       sodipodi:cy="19.890553"
       sodipodi:rx="2.5910871"
       sodipodi:ry="2.5910871"
       sodipodi:start="0"
       sodipodi:end="6.2817006"
       sodipodi:open="true"
       sodipodi:arc-type="arc"
       d="m 21.646908,19.890553 a 2.5910871,2.5910871 0 0 1 -2.590126,2.591086 2.5910871,2.5910871 0 0 1 -2.592048,-2.589163 2.5910871,2.5910871 0 0 1 2.588201,-2.593009 2.5910871,2.5910871 0 0 1 2.59397,2.587239" />
    <path
       style="fill:#000000;stroke-width:0.0310642;stroke-linejoin:round;stroke-dashoffset:5.14318"
       id="path2265-2"
       sodipodi:type="arc"
       sodipodi:cx="9.9106255"
       sodipodi:cy="14.396442"
       sodipodi:rx="3.3527374"
       sodipodi:ry="3.3527374"
       sodipodi:start="0"
       sodipodi:end="6.2817006"
       sodipodi:open="true"
       sodipodi:arc-type="arc"
       d="M 13.263363,14.396442 A 3.3527374,3.3527374 0 0 1 9.9118699,17.74918 3.3527374,3.3527374 0 0 1 6.557889,14.398931 3.3527374,3.3527374 0 0 1 9.9068921,11.043707 3.3527374,3.3527374 0 0 1 13.263359,14.391465" />
    <path
       style="fill:none;stroke:#000000;stroke-width:0.432062;stroke-linejoin:round;stroke-dasharray:none;stroke-dashoffset:5.14318;stroke-opacity:1"
       id="path2367"
       sodipodi:type="arc"
       sodipodi:cx="19.05582"
       sodipodi:cy="19.890553"
       sodipodi:rx="5.6252971"
       sodipodi:ry="5.6252971"
       sodipodi:start="0"
       sodipodi:end="6.2817006"
       sodipodi:open="true"
       sodipodi:arc-type="arc"
       d="m 24.681118,19.890553 a 5.6252971,5.6252971 0 0 1 -5.62321,5.625296 5.6252971,5.6252971 0 0 1 -5.627383,-5.621121 5.6252971,5.6252971 0 0 1 5.619032,-5.629469 5.6252971,5.6252971 0 0 1 5.631554,5.616942" />
    <path
       style="fill:none;stroke:#000000;stroke-width:1.32817;stroke-linejoin:round;stroke-dasharray:none;stroke-dashoffset:5.14318;stroke-opacity:1"
       id="path2367-7"
       sodipodi:type="arc"
       sodipodi:cx="19.05582"
       sodipodi:cy="19.890553"
       sodipodi:rx="4.0577593"
       sodipodi:ry="4.0577593"
       sodipodi:start="0"
       sodipodi:end="6.2817006"
       sodipodi:open="true"
       sodipodi:arc-type="arc"
       d="m 23.11358,19.890553 a 4.0577593,4.0577593 0 0 1 -4.056253,4.057759 4.0577593,4.0577593 0 0 1 -4.059265,-4.054747 4.0577593,4.0577593 0 0 1 4.05324,-4.060769 4.0577593,4.0577593 0 0 1 4.062273,4.051732" />
  </g>
</svg>
