<?xml version="1.0" encoding="UTF-8" standalone="no"?>
<!-- Created with Inkscape (http://www.inkscape.org/) -->

<svg
   width="278"
   height="105"
   viewBox="0 0 73.554107 27.781248"
   version="1.1"
   id="svg5"
   inkscape:version="1.2.2 (b0a8486541, 2022-12-01)"
   sodipodi:docname="Logo.svg"
   inkscape:export-filename="LogoText.png"
   inkscape:export-xdpi="96"
   inkscape:export-ydpi="96"
   xmlns:inkscape="http://www.inkscape.org/namespaces/inkscape"
   xmlns:sodipodi="http://sodipodi.sourceforge.net/DTD/sodipodi-0.dtd"
   xmlns="http://www.w3.org/2000/svg"
   xmlns:svg="http://www.w3.org/2000/svg">
  <sodipodi:namedview
     id="namedview7"
     pagecolor="#505050"
     bordercolor="#ffffff"
     borderopacity="1"
     inkscape:showpageshadow="0"
     inkscape:pageopacity="0"
     inkscape:pagecheckerboard="1"
     inkscape:deskcolor="#505050"
     inkscape:document-units="mm"
     showgrid="false"
     inkscape:zoom="3.5313412"
     inkscape:cx="95.855932"
     inkscape:cy="44.034261"
     inkscape:window-width="1888"
     inkscape:window-height="1168"
     inkscape:window-x="1934"
     inkscape:window-y="14"
     inkscape:window-maximized="1"
     inkscape:current-layer="layer1" />
  <defs
     id="defs2" />
  <g
     inkscape:label="Layer 1"
     inkscape:groupmode="layer"
     id="layer1">
    <rect
       style="fill:#ffffff;fill-opacity:1;stroke:none;stroke-width:0.379438;stroke-linejoin:round;stroke-dasharray:none;stroke-dashoffset:5.14318;stroke-opacity:1"
       id="rect4446"
       width="72.277107"
       height="26.990219"
       x="0.72832185"
       y="0.41022247"
       ry="2.8158352" />
    <path
       style="fill:#000000;stroke-width:0.0212752;stroke-linejoin:round;stroke-dashoffset:5.14318"
       id="path2265"
       sodipodi:type="arc"
       sodipodi:cx="5.8981462"
       sodipodi:cy="8.9851351"
       sodipodi:rx="2.2962115"
       sodipodi:ry="2.2962115"
       sodipodi:start="0"
       sodipodi:end="6.2817006"
       sodipodi:open="true"
       sodipodi:arc-type="arc"
       d="M 8.1943576,8.9851351 A 2.2962115,2.2962115 0 0 1 5.8989985,11.281346 2.2962115,2.2962115 0 0 1 3.6019353,8.9868397 2.2962115,2.2962115 0 0 1 5.8955893,6.688925 2.2962115,2.2962115 0 0 1 8.1943551,8.9817259" />
    <path
       style="fill:#000000;stroke-width:0.0168886;stroke-linejoin:round;stroke-dashoffset:5.14318"
       id="path2265-9"
       sodipodi:type="arc"
       sodipodi:cx="3.7729986"
       sodipodi:cy="3.1864016"
       sodipodi:rx="1.8227702"
       sodipodi:ry="1.8227702"
       sodipodi:start="0"
       sodipodi:end="6.2817006"
       sodipodi:open="true"
       sodipodi:arc-type="arc"
       d="M 5.5957688,3.1864016 A 1.8227702,1.8227702 0 0 1 3.7736751,5.0091717 1.8227702,1.8227702 0 0 1 1.9502288,3.1877547 1.8227702,1.8227702 0 0 1 3.7709689,1.3636325 1.8227702,1.8227702 0 0 1 5.5957668,3.1836953" />
    <path
       style="fill:#000000;fill-opacity:1;stroke-width:0.0240072;stroke-linejoin:round;stroke-dashoffset:5.14318"
       id="path2265-0"
       sodipodi:type="arc"
       sodipodi:cx="19.444864"
       sodipodi:cy="20.527733"
       sodipodi:rx="2.5910871"
       sodipodi:ry="2.5910871"
       sodipodi:start="0"
       sodipodi:end="6.2817006"
       sodipodi:open="true"
       sodipodi:arc-type="arc"
       d="m 22.035951,20.527733 a 2.5910871,2.5910871 0 0 1 -2.590125,2.591087 2.5910871,2.5910871 0 0 1 -2.592048,-2.589164 2.5910871,2.5910871 0 0 1 2.588201,-2.593009 2.5910871,2.5910871 0 0 1 2.59397,2.587239" />
    <path
       style="fill:#000000;stroke-width:0.0310642;stroke-linejoin:round;stroke-dashoffset:5.14318"
       id="path2265-2"
       sodipodi:type="arc"
       sodipodi:cx="10.299669"
       sodipodi:cy="15.033622"
       sodipodi:rx="3.3527374"
       sodipodi:ry="3.3527374"
       sodipodi:start="0"
       sodipodi:end="6.2817006"
       sodipodi:open="true"
       sodipodi:arc-type="arc"
       d="m 13.652407,15.033622 a 3.3527374,3.3527374 0 0 1 -3.351493,3.352737 3.3527374,3.3527374 0 0 1 -3.3539812,-3.350248 3.3527374,3.3527374 0 0 1 3.3490032,-3.355225 3.3527374,3.3527374 0 0 1 3.356467,3.347758" />
    <path
       style="fill:none;stroke:#000000;stroke-width:0.432062;stroke-linejoin:round;stroke-dasharray:none;stroke-dashoffset:5.14318;stroke-opacity:1"
       id="path2367"
       sodipodi:type="arc"
       sodipodi:cx="19.444864"
       sodipodi:cy="20.527733"
       sodipodi:rx="5.6252971"
       sodipodi:ry="5.6252971"
       sodipodi:start="0"
       sodipodi:end="6.2817006"
       sodipodi:open="true"
       sodipodi:arc-type="arc"
       d="m 25.070161,20.527733 a 5.6252971,5.6252971 0 0 1 -5.623209,5.625297 5.6252971,5.6252971 0 0 1 -5.627383,-5.621121 5.6252971,5.6252971 0 0 1 5.619031,-5.62947 5.6252971,5.6252971 0 0 1 5.631555,5.616942" />
    <path
       style="fill:none;stroke:#000000;stroke-width:1.32817;stroke-linejoin:round;stroke-dasharray:none;stroke-dashoffset:5.14318;stroke-opacity:1"
       id="path2367-7"
       sodipodi:type="arc"
       sodipodi:cx="19.444864"
       sodipodi:cy="20.527733"
       sodipodi:rx="4.0577593"
       sodipodi:ry="4.0577593"
       sodipodi:start="0"
       sodipodi:end="6.2817006"
       sodipodi:open="true"
       sodipodi:arc-type="arc"
       d="m 23.502624,20.527733 a 4.0577593,4.0577593 0 0 1 -4.056254,4.057759 4.0577593,4.0577593 0 0 1 -4.059264,-4.054747 4.0577593,4.0577593 0 0 1 4.05324,-4.060769 4.0577593,4.0577593 0 0 1 4.062273,4.051732" />
    <text
       xml:space="preserve"
       style="font-style:normal;font-variant:normal;font-weight:bold;font-stretch:normal;font-size:16.9333px;line-height:1.25;font-family:FreeMono;-inkscape-font-specification:'FreeMono, Bold';font-variant-ligatures:normal;font-variant-caps:normal;font-variant-numeric:normal;font-variant-east-asian:normal;letter-spacing:-0.656167px;word-spacing:0px;stroke-width:0.264583"
       x="25.216082"
       y="25.667"
       id="text3967"><tspan
         sodipodi:role="line"
         id="tspan3965"
         style="font-style:normal;font-variant:normal;font-weight:bold;font-stretch:normal;font-size:16.9333px;font-family:FreeMono;-inkscape-font-specification:'FreeMono, Bold';font-variant-ligatures:normal;font-variant-caps:normal;font-variant-numeric:normal;font-variant-east-asian:normal;stroke-width:0.264583"
         x="25.216082"
         y="25.667"
         dx="0 0 0 -0.47999999 0.19"
         rotate="0 0 0 0 0 0">Be<tspan
   style="font-size:16.9333px;letter-spacing:-0.955146px"
   id="tspan4019"
   dx="-0.60000002">a</tspan>di</tspan></text>
  </g>
</svg>
