<?xml version="1.0" encoding="UTF-8" standalone="no"?>
<!-- Created with Inkscape (http://www.inkscape.org/) -->

<svg
   width="100"
   height="100"
   viewBox="0 0 26.458333 26.458333"
   version="1.1"
   id="svg5"
   inkscape:version="1.2.2 (b0a8486541, 2022-12-01)"
   sodipodi:docname="LogoText.svg"
   inkscape:export-filename="Logo.png"
   inkscape:export-xdpi="96"
   inkscape:export-ydpi="96"
   xmlns:inkscape="http://www.inkscape.org/namespaces/inkscape"
   xmlns:sodipodi="http://sodipodi.sourceforge.net/DTD/sodipodi-0.dtd"
   xmlns="http://www.w3.org/2000/svg"
   xmlns:svg="http://www.w3.org/2000/svg">
  <sodipodi:namedview
     id="namedview7"
     pagecolor="#505050"
     bordercolor="#ffffff"
     borderopacity="1"
     inkscape:showpageshadow="0"
     inkscape:pageopacity="0"
     inkscape:pagecheckerboard="1"
     inkscape:deskcolor="#505050"
     inkscape:document-units="mm"
     showgrid="false"
     inkscape:zoom="2.4970353"
     inkscape:cx="150.97904"
     inkscape:cy="144.77168"
     inkscape:window-width="1888"
     inkscape:window-height="1168"
     inkscape:window-x="1934"
     inkscape:window-y="14"
     inkscape:window-maximized="1"
     inkscape:current-layer="layer1" />
  <defs
     id="defs2" />
  <g
     inkscape:label="Layer 1"
     inkscape:groupmode="layer"
     id="layer1">
    <path
       style="fill:#000000;stroke-width:0.0212752;stroke-linejoin:round;stroke-dashoffset:5.14318"
       id="path2265"
       sodipodi:type="arc"
       sodipodi:cx="6.0526905"
       sodipodi:cy="8.4559689"
       sodipodi:rx="2.2962115"
       sodipodi:ry="2.2962115"
       sodipodi:start="0"
       sodipodi:end="6.2817006"
       sodipodi:open="true"
       sodipodi:arc-type="arc"
       d="M 8.348902,8.4559689 A 2.2962115,2.2962115 0 0 1 6.0535428,10.75218 2.2962115,2.2962115 0 0 1 3.7564797,8.4576735 2.2962115,2.2962115 0 0 1 6.0501336,6.1597588 2.2962115,2.2962115 0 0 1 8.3488995,8.4525597" />
    <path
       style="fill:#000000;stroke-width:0.0168886;stroke-linejoin:round;stroke-dashoffset:5.14318"
       id="path2265-9"
       sodipodi:type="arc"
       sodipodi:cx="3.9275441"
       sodipodi:cy="2.6572349"
       sodipodi:rx="1.8227702"
       sodipodi:ry="1.8227702"
       sodipodi:start="0"
       sodipodi:end="6.2817006"
       sodipodi:open="true"
       sodipodi:arc-type="arc"
       d="M 5.7503144,2.6572349 A 1.8227702,1.8227702 0 0 1 3.9282207,4.480005 1.8227702,1.8227702 0 0 1 2.1047744,2.658588 1.8227702,1.8227702 0 0 1 3.9255144,0.8344658 1.8227702,1.8227702 0 0 1 5.7503123,2.6545286" />
    <path
       style="fill:#000000;stroke-width:0.0240072;stroke-linejoin:round;stroke-dashoffset:5.14318;fill-opacity:1"
       id="path2265-0"
       sodipodi:type="arc"
       sodipodi:cx="19.599409"
       sodipodi:cy="19.998566"
       sodipodi:rx="2.5910871"
       sodipodi:ry="2.5910871"
       sodipodi:start="0"
       sodipodi:end="6.2817006"
       sodipodi:open="true"
       sodipodi:arc-type="arc"
       d="m 22.190496,19.998566 a 2.5910871,2.5910871 0 0 1 -2.590125,2.591087 2.5910871,2.5910871 0 0 1 -2.592048,-2.589164 2.5910871,2.5910871 0 0 1 2.588201,-2.593009 2.5910871,2.5910871 0 0 1 2.593969,2.587239" />
    <path
       style="fill:#000000;stroke-width:0.0310642;stroke-linejoin:round;stroke-dashoffset:5.14318"
       id="path2265-2"
       sodipodi:type="arc"
       sodipodi:cx="10.454213"
       sodipodi:cy="14.504456"
       sodipodi:rx="3.3527374"
       sodipodi:ry="3.3527374"
       sodipodi:start="0"
       sodipodi:end="6.2817006"
       sodipodi:open="true"
       sodipodi:arc-type="arc"
       d="M 13.806951,14.504456 A 3.3527374,3.3527374 0 0 1 10.455458,17.857193 3.3527374,3.3527374 0 0 1 7.1014766,14.506944 3.3527374,3.3527374 0 0 1 10.45048,11.15172 3.3527374,3.3527374 0 0 1 13.806947,14.499478" />
    <path
       style="fill:none;stroke:#000000;stroke-width:0.432062;stroke-linejoin:round;stroke-dasharray:none;stroke-dashoffset:5.14318;stroke-opacity:1"
       id="path2367"
       sodipodi:type="arc"
       sodipodi:cx="19.599409"
       sodipodi:cy="19.998566"
       sodipodi:rx="5.6252971"
       sodipodi:ry="5.6252971"
       sodipodi:start="0"
       sodipodi:end="6.2817006"
       sodipodi:open="true"
       sodipodi:arc-type="arc"
       d="m 25.224706,19.998566 a 5.6252971,5.6252971 0 0 1 -5.623209,5.625296 5.6252971,5.6252971 0 0 1 -5.627383,-5.62112 5.6252971,5.6252971 0 0 1 5.619031,-5.62947 5.6252971,5.6252971 0 0 1 5.631555,5.616942" />
    <path
       style="fill:none;stroke:#000000;stroke-width:1.32817;stroke-linejoin:round;stroke-dasharray:none;stroke-dashoffset:5.14318;stroke-opacity:1"
       id="path2367-7"
       sodipodi:type="arc"
       sodipodi:cx="19.599409"
       sodipodi:cy="19.998566"
       sodipodi:rx="4.0577593"
       sodipodi:ry="4.0577593"
       sodipodi:start="0"
       sodipodi:end="6.2817006"
       sodipodi:open="true"
       sodipodi:arc-type="arc"
       d="m 23.657168,19.998566 a 4.0577593,4.0577593 0 0 1 -4.056253,4.057759 4.0577593,4.0577593 0 0 1 -4.059264,-4.054747 4.0577593,4.0577593 0 0 1 4.05324,-4.060769 4.0577593,4.0577593 0 0 1 4.062273,4.051732" />
    <text
       xml:space="preserve"
       style="font-style:normal;font-variant:normal;font-weight:bold;font-stretch:normal;font-size:16.9333px;line-height:1.25;font-family:FreeMono;-inkscape-font-specification:'FreeMono, Bold';font-variant-ligatures:normal;font-variant-caps:normal;font-variant-numeric:normal;font-variant-east-asian:normal;letter-spacing:-0.656167px;word-spacing:0px;stroke-width:0.264583"
       x="25.370626"
       y="25.137833"
       id="text3967"><tspan
         sodipodi:role="line"
         id="tspan3965"
         style="font-style:normal;font-variant:normal;font-weight:bold;font-stretch:normal;font-size:16.9333px;font-family:FreeMono;-inkscape-font-specification:'FreeMono, Bold';font-variant-ligatures:normal;font-variant-caps:normal;font-variant-numeric:normal;font-variant-east-asian:normal;stroke-width:0.264583"
         x="25.370626"
         y="25.137833"
         dx="0 0 0 -0.47999999 0.19"
         rotate="0 0 0 0 0 0">Be<tspan
   style="font-size:16.9333px;letter-spacing:-0.955146px"
   id="tspan4019"
   dx="-0.60000002">a</tspan>di</tspan></text>
  </g>
</svg>
